HIERARCHY
ROOT Hips
{
	OFFSET 49.996700 -10.251515 94.276802
	CHANNELS 6 Xposition Yposition Zposition Xrotation Yrotation Zrotation
	JOINT spine
	{
		OFFSET 0.000000 -0.448574 7.800591
		CHANNELS 3 Xrotation Yrotation Zrotation
		JOINT spine1
		{
			OFFSET 0.000000 -0.000002 10.136398
			CHANNELS 3 Xrotation Yrotation Zrotation
			JOINT spine2
			{
				OFFSET 0.000000 -0.000002 9.712509
				CHANNELS 3 Xrotation Yrotation Zrotation
				JOINT Neck
				{
					OFFSET 0.000000 -1.188873 24.936096
					CHANNELS 3 Xrotation Yrotation Zrotation
					JOINT Head
					{
						OFFSET 0.000000 -0.000001 7.533844
						CHANNELS 3 Xrotation Yrotation Zrotation
						End Site
						{
							OFFSET 0.000000 6.014017 18.236099
						}
					}
				}
				JOINT RightShoulder
				{
					OFFSET -4.089649 0.569455 10.488800
					CHANNELS 3 Xrotation Yrotation Zrotation
					JOINT RightArm
					{
						OFFSET 0.000000 -0.000002 13.757004
						CHANNELS 3 Xrotation Yrotation Zrotation
						JOINT RightArmRoll
						{
							OFFSET 0.000000 -0.000001 6.944778
							CHANNELS 3 Xrotation Yrotation Zrotation
							JOINT RightForeArm
							{
								OFFSET 0.000000 -0.000004 20.227692
								CHANNELS 3 Xrotation Yrotation Zrotation
								JOINT RightForeArmRoll
								{
									OFFSET 0.000000 -0.000001 7.793121
									CHANNELS 3 Xrotation Yrotation Zrotation
									JOINT RightHand
									{
										OFFSET 0.000000 -0.000003 15.639099
										CHANNELS 3 Xrotation Yrotation Zrotation
										End Site
										{
											OFFSET 0.000000 0.000000 0.100006
										}
									}
								}
							}
						}
					}
				}
				JOINT LeftShoulder
				{
					OFFSET 4.089649 0.569455 10.488800
					CHANNELS 3 Xrotation Yrotation Zrotation
					JOINT LeftArm
					{
						OFFSET 0.000000 -0.000002 13.757004
						CHANNELS 3 Xrotation Yrotation Zrotation
						JOINT LeftArmRoll
						{
							OFFSET 0.000000 -0.000001 6.944778
							CHANNELS 3 Xrotation Yrotation Zrotation
							JOINT LeftForeArm
							{
								OFFSET 0.000000 -0.000004 20.227692
								CHANNELS 3 Xrotation Yrotation Zrotation
								JOINT LeftForeArmRoll
								{
									OFFSET 0.000000 -0.000001 7.793121
									CHANNELS 3 Xrotation Yrotation Zrotation
									JOINT LeftHand
									{
										OFFSET 0.000000 -0.000003 15.639099
										CHANNELS 3 Xrotation Yrotation Zrotation
										End Site
										{
											OFFSET 0.000000 0.000000 0.100006
										}
									}
								}
							}
						}
					}
				}
			}
		}
	}
	JOINT RightUpLeg
	{
		OFFSET -6.914150 1.063581 -1.267883
		CHANNELS 3 Xrotation Yrotation Zrotation
		JOINT RightUpLegRoll
		{
			OFFSET 0.000000 -0.000003 18.337799
			CHANNELS 3 Xrotation Yrotation Zrotation
			JOINT RightLeg
			{
				OFFSET 0.000000 0.000004 -22.708504
				CHANNELS 3 Xrotation Yrotation Zrotation
				JOINT RightLegRoll
				{
					OFFSET 0.000000 -0.000004 22.782799
					CHANNELS 3 Xrotation Yrotation Zrotation
					JOINT RightFoot
					{
						OFFSET 0.000000 -0.000003 18.962898
						CHANNELS 3 Xrotation Yrotation Zrotation
						JOINT RightToeBase
						{
							OFFSET 0.000000 -0.000003 15.852005
							CHANNELS 3 Xrotation Yrotation Zrotation
							End Site
							{
								OFFSET 0.006718 0.884892 7.677017
							}
						}
					}
				}
			}
		}
	}
	JOINT LeftUpLeg
	{
		OFFSET 6.914150 1.063581 -1.267883
		CHANNELS 3 Xrotation Yrotation Zrotation
		JOINT LeftUpLegRoll
		{
			OFFSET 0.000000 -0.000003 18.337898
			CHANNELS 3 Xrotation Yrotation Zrotation
			JOINT LeftLeg
			{
				OFFSET 0.000000 -0.000004 22.708405
				CHANNELS 3 Xrotation Yrotation Zrotation
				JOINT LeftLegRoll
				{
					OFFSET 0.000000 -0.000004 22.993393
					CHANNELS 3 Xrotation Yrotation Zrotation
					JOINT LeftFoot
					{
						OFFSET 0.000000 -0.000003 18.752197
						CHANNELS 3 Xrotation Yrotation Zrotation
						JOINT LeftToeBase
						{
							OFFSET 0.000000 -0.000003 15.852005
							CHANNELS 3 Xrotation Yrotation Zrotation
							End Site
							{
								OFFSET -0.030113 0.884892 7.677017
							}
						}
					}
				}
			}
		}
	}
}
MOTION
Frames: 9
Frame Time: 0.041667
53.135300 -11.158620 93.942497 -5.248675 0.422523 2.046904 -0.746477 -0.124345 0.327512 2.510570 -0.228647 0.654583 4.155601 -0.220789 0.657275 28.223983 5.615558 -2.846014 -14.388466 -5.758473 -2.450004 -26.289214 -80.162242 -30.108253 88.263242 -76.044970 102.033546 -0.000002 0.000018 -0.000002 14.016980 -11.552324 0.462959 0.000002 -0.000006 -2.999990 -5.000181 -7.998727 0.000161 -4.046981 63.507536 5.224048 -19.035537 109.777819 3.629545 0.000000 0.000000 0.000001 13.954907 1.621913 0.753599 -0.000000 -0.000005 3.000009 -5.000157 7.999940 -0.000043 1.405428 176.915929 -2.439488 -179.999991 0.000005 -1.212995 168.974659 -1.196514 -0.594107 -0.000004 -0.000003 0.323245 71.916762 7.696015 -0.335739 25.456901 -7.347945 0.004453 1.233693 -178.586333 7.191793 -0.000005 -0.000004 -1.515700 -13.985009 4.986728 0.813681 -0.000005 -0.000000 -0.296746 74.921445 -7.774012 1.028354 25.459759 7.346846 -0.000403 
53.140305 -11.160715 93.943001 -5.245585 0.422393 2.045600 -0.746933 -0.123399 0.328189 2.509650 -0.227414 0.655935 4.154691 -0.219541 0.658614 28.218481 5.606569 -2.851457 -14.409771 -5.754281 -2.457416 -26.314393 -80.172897 -30.134327 88.256098 -76.065829 102.009859 -0.000002 0.000018 -0.000000 14.052380 -11.561091 0.467456 0.000001 -0.000006 -2.999992 -5.000177 -7.998725 0.000161 -4.063643 63.519776 5.244317 -19.017948 109.757083 3.627174 0.000001 0.000001 -0.000001 13.992154 1.640369 0.752682 -0.000003 -0.000006 3.000009 -5.000155 7.999940 -0.000040 1.411583 176.918934 -2.434725 -179.999991 0.000005 -1.212995 168.989139 -1.202459 -0.593953 -0.000005 -0.000003 0.323262 71.912289 7.697581 -0.339581 25.456901 -7.347944 0.004452 1.234091 -178.591333 7.185242 -0.000004 -0.000004 -1.514341 -13.980308 4.992207 0.814649 -0.000005 -0.000001 -0.295755 74.913686 -7.770964 1.017725 25.459756 7.346846 -0.000403 
53.137005 -11.161218 93.949402 -5.243326 0.422067 2.043802 -0.747395 -0.122373 0.328979 2.508719 -0.226002 0.657518 4.153761 -0.218110 0.660180 28.214825 5.596324 -2.856873 -14.431650 -5.748864 -2.464821 -26.342802 -80.185075 -30.163710 88.240846 -76.086921 101.977607 -0.000002 0.000017 -0.000001 14.087506 -11.570449 0.472085 -0.000000 -0.000006 -2.999991 -5.000176 -7.998724 0.000162 -4.080765 63.532015 5.265108 -18.994881 109.736797 3.619032 0.000000 0.000001 -0.000001 14.031505 1.658881 0.751732 -0.000002 -0.000005 3.000009 -5.000157 7.999940 -0.000044 1.419268 176.922936 -2.429500 -179.999991 0.000005 -1.212996 169.004726 -1.208409 -0.593773 -0.000004 -0.000003 0.323287 71.907398 7.699207 -0.343385 25.456897 -7.347944 0.004453 1.236150 -178.595322 7.178618 -0.000005 -0.000004 -1.512921 -13.974509 4.997866 0.815621 -0.000006 -0.000001 -0.294702 74.905243 -7.767665 1.006281 25.459749 7.346846 -0.000403 
53.114502 -11.076119 93.942894 -5.241625 0.421604 2.041658 -0.747861 -0.121291 0.329851 2.507788 -0.224466 0.659263 4.152830 -0.216552 0.661907 28.212426 5.585209 -2.862269 -14.453910 -5.742586 -2.472220 -26.373264 -80.198182 -30.195245 88.220226 -76.108272 101.939733 -0.000001 0.000018 -0.000001 14.122447 -11.580101 0.476769 0.000002 -0.000006 -2.999990 -5.000178 -7.998724 0.000161 -4.098230 63.544330 5.286302 -18.969440 109.715200 3.608265 0.000000 0.000000 -0.000000 14.072360 1.677442 0.750735 -0.000003 -0.000004 3.000010 -5.000157 7.999940 -0.000042 1.428025 176.926953 -2.423981 -179.999991 0.000005 -1.212996 169.020899 -1.214363 -0.593577 -0.000004 -0.000003 0.323319 71.902296 7.700846 -0.347271 25.456899 -7.347944 0.004452 1.239376 -178.600322 7.171909 -0.000005 -0.000004 -1.511450 -13.968106 5.003644 0.816607 -0.000005 -0.000000 -0.293606 74.896159 -7.764220 0.994212 25.459761 7.346846 -0.000404 
53.114803 -11.090617 93.945190 -5.240254 0.421062 2.039317 -0.748325 -0.120177 0.330768 2.506849 -0.222858 0.661099 4.151890 -0.214921 0.663726 28.210712 5.573592 -2.867644 -14.476350 -5.735827 -2.479610 -26.405230 -80.211945 -30.228314 88.195883 -76.129794 101.898035 -0.000000 0.000018 -0.000000 14.157304 -11.590038 0.481520 0.000002 -0.000006 -2.999990 -5.000177 -7.998724 0.000162 -4.115856 63.556556 5.307687 -18.941230 109.694375 3.594568 0.000001 -0.000001 -0.000003 14.113915 1.696019 0.749712 -0.000004 -0.000004 3.000011 -5.000156 7.999940 -0.000042 1.437397 176.929958 -2.418307 -179.999991 0.000005 -1.212995 169.037579 -1.220320 -0.594363 -0.000005 -0.000003 0.323354 71.897078 7.702495 -0.351146 25.456897 -7.347944 0.004452 1.243269 -178.605321 7.165166 -0.000005 -0.000004 -1.509950 -13.961208 5.009505 0.817590 -0.000005 -0.000000 -0.292485 74.886802 -7.760650 0.981742 25.459756 7.346846 -0.000403 
53.133904 -11.176417 93.947693 -5.238963 0.420500 2.036926 -0.748791 -0.119056 0.331697 2.505908 -0.221230 0.662959 4.150948 -0.213272 0.665568 28.209094 5.561851 -2.873010 -14.498895 -5.728933 -2.486999 -26.437451 -80.225811 -30.261659 88.171055 -76.151213 101.855742 -0.000001 0.000017 -0.000001 14.192160 -11.599970 0.486286 0.000002 -0.000006 -2.999992 -5.000179 -7.998726 0.000161 -4.133575 63.568857 5.329172 -18.912488 109.673481 3.580361 -0.000000 0.000000 0.000001 14.155775 1.714599 0.748662 0.000001 -0.000005 3.000010 -5.000153 7.999940 -0.000039 1.446916 176.933974 -2.412566 -179.999991 0.000005 -1.212995 169.054367 -1.227269 -0.594325 -0.000004 -0.000004 0.323388 71.891873 7.704136 -0.355024 25.456895 -7.347945 0.004453 1.247327 -178.610321 7.158405 -0.000005 -0.000004 -1.508440 -13.954306 5.015372 0.818579 -0.000006 -0.000001 -0.291358 74.877404 -7.757021 0.969177 25.459757 7.346845 -0.000403 
53.127201 -11.147519 93.951096 -5.237510 0.419977 2.034637 -0.749262 -0.117950 0.332603 2.504968 -0.219640 0.664772 4.150017 -0.211660 0.667365 28.207283 5.550362 -2.878403 -14.521344 -5.722282 -2.494384 -26.469399 -80.239478 -30.294700 88.147382 -76.172640 101.814734 -0.000001 0.000018 -0.000000 14.227016 -11.609796 0.491027 -0.000002 -0.000006 -2.999991 -5.000176 -7.998726 0.000162 -4.151202 63.581179 5.350558 -18.885497 109.651754 3.567905 0.000001 0.000001 -0.000002 14.197235 1.733171 0.747582 -0.000000 -0.000005 3.000010 -5.000152 7.999939 -0.000040 1.456132 176.937990 -2.406907 -179.999991 0.000005 -1.212996 169.070924 -1.233225 -0.594109 -0.000004 -0.000003 0.323422 71.886771 7.705773 -0.358909 25.456899 -7.347945 0.004453 1.251043 -178.614324 7.151688 -0.000005 -0.000004 -1.506951 -13.947504 5.021208 0.819556 -0.000006 -0.000000 -0.290242 74.868087 -7.753511 0.956803 25.459757 7.346846 -0.000403 
53.132599 -11.163321 93.951889 -5.235653 0.419552 2.032595 -0.749723 -0.116884 0.333452 2.504038 -0.218140 0.666472 4.149078 -0.210138 0.669046 28.204404 5.539499 -2.883794 -14.543401 -5.716234 -2.501760 -26.499601 -80.252298 -30.325944 88.127704 -76.193991 101.777947 -0.000002 0.000018 -0.000001 14.262070 -11.619409 0.495765 -0.000001 -0.000006 -2.999990 -5.000179 -7.998725 0.000162 -4.168638 63.593487 5.371718 -18.859838 109.631230 3.556992 0.000001 0.000001 -0.000000 14.237598 1.751717 0.746485 -0.000002 -0.000006 3.000009 -5.000156 7.999940 -0.000042 1.464580 176.941993 -2.401466 -179.999991 0.000005 -1.212995 169.087002 -1.239181 -0.593901 -0.000004 -0.000003 0.323452 71.881771 7.707404 -0.362805 25.456901 -7.347945 0.004453 1.253944 -178.619337 7.144999 -0.000004 -0.000004 -1.505490 -13.941306 5.026954 0.820535 -0.000005 -0.000000 -0.289158 74.859249 -7.750058 0.944953 25.459757 7.346846 -0.000403 
53.131100 -11.164717 93.948997 -5.233144 0.419284 2.030942 -0.750186 -0.115881 0.334208 2.503107 -0.216782 0.667986 4.148158 -0.208763 0.670545 28.200173 5.529635 -2.889221 -14.565185 -5.711158 -2.509153 -26.527463 -80.263978 -30.354754 88.114133 -76.215001 101.747539 -0.000002 0.000018 -0.000001 14.297311 -11.628618 0.500446 0.000001 -0.000006 -2.999990 -5.000178 -7.998724 0.000162 -4.185703 63.605611 5.392443 -18.838729 109.610159 3.550861 0.000001 0.000000 -0.000002 14.276259 1.770208 0.745381 -0.000002 -0.000005 3.000011 -5.000155 7.999939 -0.000042 1.471814 176.944998 -2.396396 -179.999991 0.000005 -1.212996 169.102192 -1.245146 -0.593711 -0.000004 -0.000003 0.323475 71.876977 7.708986 -0.366521 25.456899 -7.347944 0.004452 1.255499 -178.624337 7.138376 -0.000005 -0.000004 -1.504090 -13.935904 5.032559 0.821504 -0.000005 -0.000000 -0.288124 74.850978 -7.746836 0.933714 25.459757 7.346845 -0.000403 
